# Blender v2.92.0 OBJ File: 'camera_module.blend'
# www.blender.org
mtllib camera_module.mtl
o Cube
v 0.000000 0.500000 0.500000
v 0.097545 0.490393 0.500000
v 0.191342 0.461940 0.500000
v 0.277785 0.415735 0.500000
v 0.353553 0.353553 0.500000
v 0.415735 0.277785 0.500000
v 0.461940 0.191342 0.500000
v 0.490393 0.097545 0.500000
v 0.500000 0.000000 0.500000
v 0.490393 -0.097545 0.500000
v 0.461940 -0.191342 0.500000
v 0.415735 -0.277785 0.500000
v 0.353553 -0.353553 0.500000
v 0.277785 -0.415735 0.500000
v 0.191342 -0.461940 0.500000
v 0.097545 -0.490393 0.500000
v -0.000000 -0.500000 0.500000
v -0.097545 -0.490393 0.500000
v -0.191342 -0.461940 0.500000
v -0.277785 -0.415735 0.500000
v -0.353554 -0.353553 0.500000
v -0.415735 -0.277785 0.500000
v -0.461940 -0.191341 0.500000
v -0.490393 -0.097545 0.500000
v -0.500000 0.000000 0.500000
v -0.490393 0.097546 0.500000
v -0.461940 0.191342 0.500000
v -0.415734 0.277786 0.500000
v -0.353553 0.353554 0.500000
v -0.277785 0.415735 0.500000
v -0.191341 0.461940 0.500000
v -0.097544 0.490393 0.500000
v 0.000000 0.500000 0.400000
v 0.097545 0.490393 0.400000
v -0.097545 -0.490393 0.400000
v 0.191342 0.461940 0.400000
v 0.277785 0.415735 0.400000
v -0.191342 -0.461940 0.400000
v 0.353553 0.353553 0.400000
v -0.277785 -0.415735 0.400000
v 0.415735 0.277785 0.400000
v 0.461940 0.191342 0.400000
v -0.353554 -0.353553 0.400000
v 0.490393 0.097545 0.400000
v 0.500000 0.000000 0.400000
v -0.415735 -0.277785 0.400000
v 0.490393 -0.097545 0.400000
v -0.461940 -0.191341 0.400000
v 0.461940 -0.191342 0.400000
v 0.415735 -0.277785 0.400000
v -0.490393 -0.097545 0.400000
v 0.353553 -0.353553 0.400000
v -0.500000 0.000000 0.400000
v 0.277785 -0.415735 0.400000
v 0.191342 -0.461940 0.400000
v -0.490393 0.097546 0.400000
v 0.097545 -0.490393 0.400000
v -0.000000 -0.500000 0.400000
v -0.461940 0.191342 0.400000
v -0.415734 0.277786 0.400000
v -0.353553 0.353554 0.400000
v -0.277785 0.415735 0.400000
v -0.191341 0.461940 0.400000
v -0.097544 0.490393 0.400000
v 0.144888 0.728399 0.608555
v -0.000000 0.742669 0.608555
v 0.284207 0.686137 0.608555
v 0.412605 0.617507 0.608555
v 0.525147 0.525146 0.608555
v 0.617507 0.412605 0.608555
v 0.686137 0.284207 0.608555
v 0.728399 0.144888 0.608555
v 0.742669 -0.000000 0.608555
v 0.728399 -0.144888 0.608555
v 0.686137 -0.284207 0.608555
v 0.617507 -0.412605 0.608555
v 0.525147 -0.525147 0.608555
v 0.412605 -0.617507 0.608555
v 0.284207 -0.686137 0.608555
v 0.144887 -0.728399 0.608555
v -0.000000 -0.742669 0.608555
v -0.144888 -0.728399 0.608555
v -0.284208 -0.686137 0.608555
v -0.412605 -0.617507 0.608555
v -0.525147 -0.525146 0.608555
v -0.617507 -0.412605 0.608555
v -0.686137 -0.284207 0.608555
v -0.728399 -0.144887 0.608555
v -0.742669 0.000001 0.608555
v -0.728399 0.144888 0.608555
v -0.686137 0.284208 0.608555
v -0.617507 0.412606 0.608555
v -0.525146 0.525147 0.608555
v -0.412604 0.617508 0.608555
v -0.284206 0.686137 0.608555
v -0.144887 0.728399 0.608555
v 0.105977 0.532784 0.927930
v -0.000000 0.543221 0.927930
v 0.207882 0.501871 0.927930
v 0.301798 0.451672 0.927930
v 0.384116 0.384116 0.927930
v 0.451672 0.301798 0.927930
v 0.501871 0.207882 0.927930
v 0.532784 0.105977 0.927930
v 0.543222 -0.000000 0.927930
v 0.532784 -0.105977 0.927930
v 0.501871 -0.207882 0.927930
v 0.451672 -0.301798 0.927930
v 0.384116 -0.384116 0.927930
v 0.301798 -0.451672 0.927930
v 0.207882 -0.501871 0.927930
v 0.105977 -0.532784 0.927930
v -0.000000 -0.543222 0.927930
v -0.105978 -0.532784 0.927930
v -0.207882 -0.501871 0.927930
v -0.301798 -0.451672 0.927930
v -0.384116 -0.384116 0.927930
v -0.451672 -0.301798 0.927930
v -0.501872 -0.207882 0.927930
v -0.532784 -0.105977 0.927930
v -0.543222 0.000000 0.927930
v -0.532784 0.105978 0.927930
v -0.501871 0.207882 0.927930
v -0.451672 0.301798 0.927930
v -0.384115 0.384116 0.927930
v -0.301797 0.451673 0.927930
v -0.207881 0.501872 0.927930
v -0.105976 0.532784 0.927930
v 0.144888 0.728399 0.927930
v -0.000000 0.742669 0.927930
v 0.284207 0.686137 0.927930
v 0.412605 0.617507 0.927930
v 0.525147 0.525146 0.927930
v 0.617507 0.412605 0.927930
v 0.686137 0.284207 0.927930
v 0.728399 0.144888 0.927930
v 0.742669 -0.000000 0.927930
v 0.728399 -0.144888 0.927930
v 0.686137 -0.284207 0.927930
v 0.617507 -0.412605 0.927930
v 0.525147 -0.525147 0.927930
v 0.412605 -0.617507 0.927930
v 0.284207 -0.686137 0.927930
v 0.144887 -0.728399 0.927930
v -0.000000 -0.742669 0.927930
v -0.144888 -0.728399 0.927930
v -0.284208 -0.686137 0.927930
v -0.412605 -0.617507 0.927930
v -0.525147 -0.525146 0.927930
v -0.617507 -0.412605 0.927930
v -0.686137 -0.284207 0.927930
v -0.728399 -0.144887 0.927930
v -0.742669 0.000001 0.927930
v -0.728399 0.144888 0.927930
v -0.686137 0.284208 0.927930
v -0.617507 0.412606 0.927930
v -0.525146 0.525147 0.927930
v -0.412604 0.617508 0.927930
v -0.284206 0.686137 0.927930
v -0.144887 0.728399 0.927930
v 0.105977 0.532784 0.840809
v -0.000000 0.543221 0.840809
v 0.207882 0.501871 0.840809
v 0.301798 0.451672 0.840809
v 0.384116 0.384116 0.840809
v 0.451672 0.301798 0.840809
v 0.501871 0.207882 0.840809
v 0.532784 0.105977 0.840809
v 0.543222 -0.000000 0.840809
v 0.532784 -0.105977 0.840809
v 0.501871 -0.207882 0.840809
v 0.451672 -0.301798 0.840809
v 0.384116 -0.384116 0.840809
v 0.301798 -0.451672 0.840809
v 0.207882 -0.501871 0.840809
v 0.105977 -0.532784 0.840809
v -0.000000 -0.543222 0.840809
v -0.105978 -0.532784 0.840809
v -0.207882 -0.501871 0.840809
v -0.301798 -0.451672 0.840809
v -0.384116 -0.384116 0.840809
v -0.451672 -0.301798 0.840809
v -0.501872 -0.207882 0.840809
v -0.532784 -0.105977 0.840809
v -0.543222 0.000000 0.840809
v -0.532784 0.105978 0.840809
v -0.501871 0.207882 0.840809
v -0.451672 0.301798 0.840809
v -0.384115 0.384116 0.840809
v -0.301797 0.451673 0.840809
v -0.207881 0.501872 0.840809
v -0.105976 0.532784 0.840809
v 0.632153 1.000000 -1.000000
v 1.000000 0.632153 -1.000000
v 1.000000 -0.632153 -1.000000
v 0.632153 -1.000000 -1.000000
v 1.000000 0.632153 0.400000
v 0.632153 1.000000 0.400000
v 0.739893 0.739893 0.400000
v 0.632153 -1.000000 0.400000
v 1.000000 -0.632153 0.400000
v 0.739893 -0.739893 0.400000
v -1.000000 0.632153 -1.000000
v -0.632153 1.000000 -1.000000
v -0.632153 -1.000000 -1.000000
v -1.000000 -0.632153 -1.000000
v -0.632153 1.000000 0.400000
v -1.000000 0.632153 0.400000
v -1.000000 -0.632153 0.400000
v -0.632153 -1.000000 0.400000
vt 0.343750 1.000000
vt 0.375000 1.000000
vt 0.375000 1.000000
vt 0.343750 1.000000
vt 0.170981 0.500000
vt 0.329019 0.500000
vt 0.329019 0.750000
vt 0.170981 0.750000
vt 0.407513 0.782513
vt 0.420981 0.750000
vt 0.579019 0.750000
vt 0.592487 0.782513
vt 0.544194 0.830806
vt 0.534723 0.823033
vt 0.523918 0.817258
vt 0.512193 0.813701
vt 0.500000 0.812500
vt 0.487807 0.813701
vt 0.476082 0.817258
vt 0.465277 0.823033
vt 0.455806 0.830806
vt 0.670981 0.500000
vt 0.829019 0.500000
vt 0.829019 0.750000
vt 0.670981 0.750000
vt 0.420981 0.500000
vt 0.579019 0.500000
vt 1.000000 0.950000
vt 1.000000 1.000000
vt 0.968750 1.000000
vt 0.968750 0.950000
vt 0.937500 1.000000
vt 0.937500 0.950000
vt 0.906250 1.000000
vt 0.906250 0.950000
vt 0.875000 1.000000
vt 0.875000 0.950000
vt 0.843750 1.000000
vt 0.843750 0.950000
vt 0.812500 1.000000
vt 0.812500 0.950000
vt 0.781250 1.000000
vt 0.781250 0.950000
vt 0.750000 1.000000
vt 0.750000 0.950000
vt 0.718750 1.000000
vt 0.718750 0.950000
vt 0.687500 1.000000
vt 0.687500 0.950000
vt 0.656250 1.000000
vt 0.656250 0.950000
vt 0.625000 1.000000
vt 0.625000 0.950000
vt 0.593750 1.000000
vt 0.593750 0.950000
vt 0.562500 1.000000
vt 0.562500 0.950000
vt 0.531250 1.000000
vt 0.531250 0.950000
vt 0.500000 1.000000
vt 0.500000 0.950000
vt 0.468750 1.000000
vt 0.468750 0.950000
vt 0.437500 1.000000
vt 0.437500 0.950000
vt 0.406250 1.000000
vt 0.406250 0.950000
vt 0.375000 0.950000
vt 0.343750 0.950000
vt 0.312500 1.000000
vt 0.312500 0.950000
vt 0.281250 1.000000
vt 0.281250 0.950000
vt 0.250000 1.000000
vt 0.250000 0.950000
vt 0.218750 1.000000
vt 0.218750 0.950000
vt 0.187500 1.000000
vt 0.187500 0.950000
vt 0.156250 1.000000
vt 0.156250 0.950000
vt 0.125000 1.000000
vt 0.125000 0.950000
vt 0.093750 1.000000
vt 0.093750 0.950000
vt 0.062500 1.000000
vt 0.062500 0.950000
vt 0.031250 1.000000
vt 0.031250 0.950000
vt 0.000000 1.000000
vt 0.000000 0.950000
vt 0.625000 0.795981
vt 0.625000 0.954019
vt 0.579019 1.000000
vt 0.420981 1.000000
vt 0.375000 0.954019
vt 0.375000 0.795981
vt 0.448033 0.840277
vt 0.442258 0.851082
vt 0.438701 0.862807
vt 0.437500 0.875000
vt 0.438701 0.887193
vt 0.442258 0.898918
vt 0.448033 0.909723
vt 0.455806 0.919194
vt 0.465277 0.926967
vt 0.476082 0.932742
vt 0.487807 0.936299
vt 0.500000 0.937500
vt 0.512193 0.936299
vt 0.523918 0.932742
vt 0.534723 0.926967
vt 0.544194 0.919194
vt 0.551967 0.909723
vt 0.557743 0.898918
vt 0.561299 0.887193
vt 0.562500 0.875000
vt 0.561299 0.862807
vt 0.557742 0.851082
vt 0.551967 0.840277
vt 0.420981 0.000000
vt 0.579019 0.000000
vt 0.579019 0.250000
vt 0.420981 0.250000
vt 0.843750 1.000000
vt 0.875000 1.000000
vt 0.875000 1.000000
vt 0.843750 1.000000
vt 0.781250 1.000000
vt 0.750000 1.000000
vt 0.312500 1.000000
vt 0.718750 1.000000
vt 0.281250 1.000000
vt 0.687500 1.000000
vt 0.250000 1.000000
vt 0.656250 1.000000
vt 0.218750 1.000000
vt 0.625000 1.000000
vt 0.187500 1.000000
vt 0.593750 1.000000
vt 0.156250 1.000000
vt 0.562500 1.000000
vt 1.000000 1.000000
vt 0.968750 1.000000
vt 0.125000 1.000000
vt 0.531250 1.000000
vt 0.937500 1.000000
vt 0.093750 1.000000
vt 0.500000 1.000000
vt 0.906250 1.000000
vt 0.062500 1.000000
vt 0.468750 1.000000
vt 0.031250 1.000000
vt 0.437500 1.000000
vt 0.000000 1.000000
vt 0.406250 1.000000
vt 0.812500 1.000000
vt 0.395962 0.152471
vt 0.412184 0.182821
vt 0.412184 0.182821
vt 0.395962 0.152471
vt 0.031250 1.000000
vt 0.000000 1.000000
vt 0.437500 1.000000
vt 0.406250 1.000000
vt 0.812500 1.000000
vt 0.375000 1.000000
vt 0.781250 1.000000
vt 0.343750 1.000000
vt 0.750000 1.000000
vt 0.312500 1.000000
vt 0.718750 1.000000
vt 0.281250 1.000000
vt 0.687500 1.000000
vt 0.250000 1.000000
vt 0.656250 1.000000
vt 0.218750 1.000000
vt 0.625000 1.000000
vt 0.187500 1.000000
vt 0.593750 1.000000
vt 0.156250 1.000000
vt 0.562500 1.000000
vt 1.000000 1.000000
vt 0.968750 1.000000
vt 0.125000 1.000000
vt 0.531250 1.000000
vt 0.937500 1.000000
vt 0.093750 1.000000
vt 0.500000 1.000000
vt 0.906250 1.000000
vt 0.062500 1.000000
vt 0.468750 1.000000
vt 0.250000 0.425547
vt 0.284247 0.422174
vt 0.296822 0.485388
vt 0.250000 0.490000
vt 0.317179 0.412184
vt 0.341844 0.471731
vt 0.347529 0.395962
vt 0.383337 0.449553
vt 0.374130 0.374130
vt 0.419706 0.419706
vt 0.395962 0.347529
vt 0.449553 0.383337
vt 0.412184 0.317179
vt 0.471731 0.341844
vt 0.422174 0.284248
vt 0.485388 0.296822
vt 0.425547 0.250000
vt 0.490000 0.250000
vt 0.422174 0.215753
vt 0.485388 0.203178
vt 0.471731 0.158156
vt 0.449553 0.116663
vt 0.374130 0.125870
vt 0.419706 0.080294
vt 0.347529 0.104038
vt 0.383337 0.050447
vt 0.317179 0.087816
vt 0.341844 0.028269
vt 0.284247 0.077826
vt 0.296822 0.014612
vt 0.250000 0.074453
vt 0.250000 0.010000
vt 0.215752 0.077826
vt 0.203178 0.014612
vt 0.182821 0.087816
vt 0.158156 0.028269
vt 0.152471 0.104038
vt 0.116663 0.050447
vt 0.125870 0.125870
vt 0.080294 0.080294
vt 0.104038 0.152472
vt 0.050447 0.116663
vt 0.087816 0.182821
vt 0.028269 0.158156
vt 0.077826 0.215753
vt 0.014611 0.203179
vt 0.074453 0.250000
vt 0.010000 0.250000
vt 0.077826 0.284248
vt 0.014612 0.296822
vt 0.087816 0.317179
vt 0.028269 0.341844
vt 0.104038 0.347529
vt 0.050447 0.383337
vt 0.125870 0.374130
vt 0.080295 0.419706
vt 0.152472 0.395962
vt 0.116663 0.449553
vt 0.182821 0.412184
vt 0.158156 0.471731
vt 0.215753 0.422174
vt 0.203179 0.485389
vt 0.074453 0.250000
vt 0.077826 0.284248
vt 0.374130 0.125870
vt 0.087816 0.317179
vt 0.347529 0.104038
vt 0.104038 0.347529
vt 0.317179 0.087816
vt 0.250000 0.425547
vt 0.284247 0.422174
vt 0.125870 0.374130
vt 0.284247 0.077826
vt 0.317179 0.412184
vt 0.152472 0.395962
vt 0.250000 0.074453
vt 0.347529 0.395962
vt 0.182821 0.412184
vt 0.215752 0.077826
vt 0.374130 0.374130
vt 0.215753 0.422174
vt 0.182821 0.087816
vt 0.395962 0.347529
vt 0.152471 0.104038
vt 0.412184 0.317179
vt 0.125870 0.125870
vt 0.422174 0.284248
vt 0.104038 0.152472
vt 0.425547 0.250000
vt 0.087816 0.182821
vt 0.422174 0.215753
vt 0.077826 0.215753
vt 0.397990 0.772990
vt 0.125000 0.750000
vt 0.125000 0.500000
vt 0.625000 0.000000
vt 0.625000 0.250000
vt 0.375000 0.295981
vt 0.625000 0.295981
vt 0.625000 0.454019
vt 0.375000 0.454019
vn -0.3169 -0.2601 -0.9121
vn 0.0000 -1.0000 0.0000
vn -0.0000 0.0000 1.0000
vn 0.0000 1.0000 0.0000
vn 1.0000 0.0000 0.0000
vn 0.0980 0.9952 0.0000
vn 0.2903 0.9569 0.0000
vn 0.4714 0.8819 0.0000
vn 0.6344 0.7730 0.0000
vn 0.7730 0.6344 0.0000
vn 0.8819 0.4714 0.0000
vn 0.9569 0.2903 0.0000
vn 0.9952 0.0980 0.0000
vn 0.9952 -0.0980 0.0000
vn 0.9569 -0.2903 0.0000
vn 0.8819 -0.4714 0.0000
vn 0.7730 -0.6344 0.0000
vn 0.6344 -0.7730 0.0000
vn 0.4714 -0.8819 0.0000
vn 0.2903 -0.9569 0.0000
vn 0.0980 -0.9952 0.0000
vn -0.0980 -0.9952 0.0000
vn -0.2903 -0.9569 0.0000
vn -0.4714 -0.8819 0.0000
vn -0.6344 -0.7730 0.0000
vn -0.7730 -0.6344 0.0000
vn -0.8819 -0.4714 0.0000
vn -0.9569 -0.2903 0.0000
vn -0.9952 -0.0980 0.0000
vn -0.9952 0.0980 0.0000
vn -0.9569 0.2903 0.0000
vn -0.8819 0.4714 0.0000
vn -0.7730 0.6344 0.0000
vn -0.6344 0.7730 0.0000
vn -0.4714 0.8819 0.0000
vn -0.2903 0.9569 0.0000
vn -0.0980 0.9952 0.0000
vn -1.0000 0.0000 0.0000
vn 0.4080 0.0402 -0.9121
vn -0.3616 -0.1933 -0.9121
vn 0.4080 -0.0402 -0.9121
vn -0.3923 -0.1190 -0.9121
vn 0.3923 -0.1190 -0.9121
vn -0.4080 -0.0402 -0.9121
vn 0.3616 -0.1933 -0.9121
vn -0.4080 0.0402 -0.9121
vn 0.3169 -0.2601 -0.9121
vn -0.3923 0.1190 -0.9121
vn 0.2601 -0.3169 -0.9121
vn -0.3616 0.1933 -0.9121
vn 0.1933 -0.3616 -0.9121
vn 0.0402 0.4080 -0.9121
vn -0.3169 0.2601 -0.9121
vn 0.1190 -0.3923 -0.9121
vn 0.1190 0.3923 -0.9121
vn -0.2601 0.3169 -0.9121
vn 0.0402 -0.4080 -0.9121
vn 0.1933 0.3616 -0.9121
vn -0.1933 0.3616 -0.9121
vn -0.0402 -0.4080 -0.9121
vn 0.2601 0.3169 -0.9121
vn -0.1190 0.3923 -0.9121
vn -0.1190 -0.3923 -0.9121
vn 0.3169 0.2601 -0.9121
vn -0.0402 0.4080 -0.9121
vn -0.1933 -0.3616 -0.9121
vn 0.3616 0.1933 -0.9121
vn -0.2601 -0.3169 -0.9121
vn 0.3923 0.1190 -0.9121
vn -0.7071 -0.7071 0.0000
vn 0.7071 0.7071 0.0000
vn -0.7071 0.7071 0.0000
vn 0.7071 -0.7071 0.0000
vn 0.0000 0.0000 -1.0000
usemtl Material
s off
f 22/1/1 21/2/1 85/3/1 86/4/1
f 205/5/2 196/6/2 200/7/2 210/8/2
f 202/9/3 201/10/3 197/11/3 199/12/3 39/13/3 41/14/3 42/15/3 44/16/3 45/17/3 47/18/3 49/19/3 50/20/3 52/21/3
f 193/22/4 204/23/4 207/24/4 198/25/4
f 195/26/5 194/27/5 197/11/5 201/10/5
f 33/28/6 1/29/6 2/30/6 34/31/6
f 34/31/7 2/30/7 3/32/7 36/33/7
f 36/33/8 3/32/8 4/34/8 37/35/8
f 37/35/9 4/34/9 5/36/9 39/37/9
f 5/36/10 6/38/10 41/39/10 39/37/10
f 6/38/11 7/40/11 42/41/11 41/39/11
f 7/40/12 8/42/12 44/43/12 42/41/12
f 8/42/13 9/44/13 45/45/13 44/43/13
f 9/44/14 10/46/14 47/47/14 45/45/14
f 10/46/15 11/48/15 49/49/15 47/47/15
f 11/48/16 12/50/16 50/51/16 49/49/16
f 12/50/17 13/52/17 52/53/17 50/51/17
f 13/52/18 14/54/18 54/55/18 52/53/18
f 14/54/19 15/56/19 55/57/19 54/55/19
f 15/56/20 16/58/20 57/59/20 55/57/20
f 16/58/21 17/60/21 58/61/21 57/59/21
f 17/60/22 18/62/22 35/63/22 58/61/22
f 18/62/23 19/64/23 38/65/23 35/63/23
f 19/64/24 20/66/24 40/67/24 38/65/24
f 20/66/25 21/2/25 43/68/25 40/67/25
f 21/2/26 22/1/26 46/69/26 43/68/26
f 22/1/27 23/70/27 48/71/27 46/69/27
f 23/70/28 24/72/28 51/73/28 48/71/28
f 24/72/29 25/74/29 53/75/29 51/73/29
f 25/74/30 26/76/30 56/77/30 53/75/30
f 26/76/31 27/78/31 59/79/31 56/77/31
f 27/78/32 28/80/32 60/81/32 59/79/32
f 28/80/33 29/82/33 61/83/33 60/81/33
f 61/83/34 29/82/34 30/84/34 62/85/34
f 62/85/35 30/84/35 31/86/35 63/87/35
f 63/87/36 31/86/36 32/88/36 64/89/36
f 64/89/37 32/88/37 1/90/37 33/91/37
f 39/13/3 199/12/3 198/92/3 207/93/3 208/94/3 209/95/3 210/96/3 200/97/3 202/9/3 52/21/3 54/98/3 55/99/3 57/100/3 58/101/3 35/102/3 38/103/3 40/104/3 43/105/3 46/106/3 48/107/3 51/108/3 53/109/3 56/110/3 59/111/3 60/112/3 61/113/3 62/114/3 63/115/3 64/116/3 33/117/3 34/118/3 36/119/3 37/120/3
f 209/121/38 208/122/38 203/123/38 206/124/38
f 70/125/10 69/126/10 133/127/10 134/128/10
f 9/44/39 8/42/39 72/129/39 73/130/39
f 23/70/40 22/1/40 86/4/40 87/131/40
f 10/46/41 9/44/41 73/130/41 74/132/41
f 24/72/42 23/70/42 87/131/42 88/133/42
f 11/48/43 10/46/43 74/132/43 75/134/43
f 25/74/44 24/72/44 88/133/44 89/135/44
f 12/50/45 11/48/45 75/134/45 76/136/45
f 26/76/46 25/74/46 89/135/46 90/137/46
f 13/52/47 12/50/47 76/136/47 77/138/47
f 27/78/48 26/76/48 90/137/48 91/139/48
f 14/54/49 13/52/49 77/138/49 78/140/49
f 28/80/50 27/78/50 91/139/50 92/141/50
f 15/56/51 14/54/51 78/140/51 79/142/51
f 2/30/52 1/29/52 66/143/52 65/144/52
f 29/82/53 28/80/53 92/141/53 93/145/53
f 16/58/54 15/56/54 79/142/54 80/146/54
f 3/32/55 2/30/55 65/144/55 67/147/55
f 30/84/56 29/82/56 93/145/56 94/148/56
f 17/60/57 16/58/57 80/146/57 81/149/57
f 4/34/58 3/32/58 67/147/58 68/150/58
f 31/86/59 30/84/59 94/148/59 95/151/59
f 18/62/60 17/60/60 81/149/60 82/152/60
f 5/36/61 4/34/61 68/150/61 69/126/61
f 32/88/62 31/86/62 95/151/62 96/153/62
f 19/64/63 18/62/63 82/152/63 83/154/63
f 6/38/64 5/36/64 69/126/64 70/125/64
f 1/90/65 32/88/65 96/153/65 66/155/65
f 20/66/66 19/64/66 83/154/66 84/156/66
f 7/40/67 6/38/67 70/125/67 71/157/67
f 21/2/68 20/66/68 84/156/68 85/3/68
f 8/42/69 7/40/69 71/157/69 72/129/69
f 108/158/32 107/159/32 171/160/32 172/161/32
f 66/155/37 96/153/37 160/162/37 130/163/37
f 84/156/24 83/154/24 147/164/24 148/165/24
f 71/157/11 70/125/11 134/128/11 135/166/11
f 85/3/25 84/156/25 148/165/25 149/167/25
f 72/129/12 71/157/12 135/166/12 136/168/12
f 86/4/26 85/3/26 149/167/26 150/169/26
f 73/130/13 72/129/13 136/168/13 137/170/13
f 87/131/27 86/4/27 150/169/27 151/171/27
f 74/132/14 73/130/14 137/170/14 138/172/14
f 88/133/28 87/131/28 151/171/28 152/173/28
f 75/134/15 74/132/15 138/172/15 139/174/15
f 89/135/29 88/133/29 152/173/29 153/175/29
f 76/136/16 75/134/16 139/174/16 140/176/16
f 90/137/30 89/135/30 153/175/30 154/177/30
f 77/138/17 76/136/17 140/176/17 141/178/17
f 91/139/31 90/137/31 154/177/31 155/179/31
f 78/140/18 77/138/18 141/178/18 142/180/18
f 92/141/32 91/139/32 155/179/32 156/181/32
f 79/142/19 78/140/19 142/180/19 143/182/19
f 65/144/6 66/143/6 130/183/6 129/184/6
f 93/145/33 92/141/33 156/181/33 157/185/33
f 80/146/20 79/142/20 143/182/20 144/186/20
f 67/147/7 65/144/7 129/184/7 131/187/7
f 94/148/34 93/145/34 157/185/34 158/188/34
f 81/149/21 80/146/21 144/186/21 145/189/21
f 68/150/8 67/147/8 131/187/8 132/190/8
f 95/151/35 94/148/35 158/188/35 159/191/35
f 82/152/22 81/149/22 145/189/22 146/192/22
f 69/126/9 68/150/9 132/190/9 133/127/9
f 96/153/36 95/151/36 159/191/36 160/162/36
f 83/154/23 82/152/23 146/192/23 147/164/23
f 98/193/3 97/194/3 129/195/3 130/196/3
f 97/194/3 99/197/3 131/198/3 129/195/3
f 99/197/3 100/199/3 132/200/3 131/198/3
f 100/199/3 101/201/3 133/202/3 132/200/3
f 101/201/3 102/203/3 134/204/3 133/202/3
f 102/203/3 103/205/3 135/206/3 134/204/3
f 103/205/3 104/207/3 136/208/3 135/206/3
f 104/207/3 105/209/3 137/210/3 136/208/3
f 105/209/3 106/211/3 138/212/3 137/210/3
f 106/211/3 107/159/3 139/213/3 138/212/3
f 107/159/3 108/158/3 140/214/3 139/213/3
f 108/158/3 109/215/3 141/216/3 140/214/3
f 109/215/3 110/217/3 142/218/3 141/216/3
f 110/217/3 111/219/3 143/220/3 142/218/3
f 111/219/3 112/221/3 144/222/3 143/220/3
f 112/221/3 113/223/3 145/224/3 144/222/3
f 113/223/3 114/225/3 146/226/3 145/224/3
f 114/225/3 115/227/3 147/228/3 146/226/3
f 115/227/3 116/229/3 148/230/3 147/228/3
f 116/229/3 117/231/3 149/232/3 148/230/3
f 117/231/3 118/233/3 150/234/3 149/232/3
f 118/233/3 119/235/3 151/236/3 150/234/3
f 119/235/3 120/237/3 152/238/3 151/236/3
f 120/237/3 121/239/3 153/240/3 152/238/3
f 121/239/3 122/241/3 154/242/3 153/240/3
f 122/241/3 123/243/3 155/244/3 154/242/3
f 123/243/3 124/245/3 156/246/3 155/244/3
f 124/245/3 125/247/3 157/248/3 156/246/3
f 125/247/3 126/249/3 158/250/3 157/248/3
f 126/249/3 127/251/3 159/252/3 158/250/3
f 127/251/3 128/253/3 160/254/3 159/252/3
f 128/253/3 98/193/3 130/196/3 160/254/3
f 122/241/14 121/239/14 185/255/14 186/256/14
f 109/215/33 108/158/33 172/161/33 173/257/33
f 123/243/15 122/241/15 186/256/15 187/258/15
f 110/217/34 109/215/34 173/257/34 174/259/34
f 124/245/16 123/243/16 187/258/16 188/260/16
f 111/219/35 110/217/35 174/259/35 175/261/35
f 97/194/22 98/193/22 162/262/22 161/263/22
f 125/247/17 124/245/17 188/260/17 189/264/17
f 112/221/36 111/219/36 175/261/36 176/265/36
f 99/197/23 97/194/23 161/263/23 163/266/23
f 126/249/18 125/247/18 189/264/18 190/267/18
f 113/223/37 112/221/37 176/265/37 177/268/37
f 100/199/24 99/197/24 163/266/24 164/269/24
f 127/251/19 126/249/19 190/267/19 191/270/19
f 114/225/6 113/223/6 177/268/6 178/271/6
f 101/201/25 100/199/25 164/269/25 165/272/25
f 128/253/20 127/251/20 191/270/20 192/273/20
f 115/227/7 114/225/7 178/271/7 179/274/7
f 102/203/26 101/201/26 165/272/26 166/275/26
f 98/193/21 128/253/21 192/273/21 162/262/21
f 116/229/8 115/227/8 179/274/8 180/276/8
f 103/205/27 102/203/27 166/275/27 167/277/27
f 117/231/9 116/229/9 180/276/9 181/278/9
f 104/207/28 103/205/28 167/277/28 168/279/28
f 118/233/10 117/231/10 181/278/10 182/280/10
f 105/209/29 104/207/29 168/279/29 169/281/29
f 119/235/11 118/233/11 182/280/11 183/282/11
f 106/211/30 105/209/30 169/281/30 170/283/30
f 120/237/12 119/235/12 183/282/12 184/284/12
f 107/159/31 106/211/31 170/283/31 171/160/31
f 121/239/13 120/237/13 184/284/13 185/255/13
f 197/11/3 198/92/3 199/12/3
f 200/97/3 201/285/3 202/9/3
f 205/5/70 210/8/70 209/286/70 206/287/70
f 193/22/71 198/25/71 197/11/71 194/27/71
f 207/288/72 204/289/72 203/123/72 208/122/72
f 200/7/73 196/6/73 195/26/73 201/10/73
f 205/290/74 206/124/74 203/123/74 204/291/74 193/292/74 194/27/74 195/26/74 196/293/74
usemtl Material.001
f 161/263/3 162/262/3 192/273/3 191/270/3 190/267/3 189/264/3 188/260/3 187/258/3 186/256/3 185/255/3 184/284/3 183/282/3 182/280/3 181/278/3 180/276/3 179/274/3 178/271/3 177/268/3 176/265/3 175/261/3 174/259/3 173/257/3 172/161/3 171/160/3 170/283/3 169/281/3 168/279/3 167/277/3 166/275/3 165/272/3 164/269/3 163/266/3
