# Blender v2.92.0 OBJ File: 'control_module.blend'
# www.blender.org
mtllib control_module.mtl
o Cube
v 0.857876 0.857876 -1.000000
v 0.857876 1.000000 -0.857876
v 1.000000 0.857876 -0.857876
v 0.857876 -1.000000 -0.857876
v 0.857876 -0.857876 -1.000000
v 1.000000 -0.857876 -0.857876
v 1.000000 0.857876 0.857876
v 0.857876 1.000000 0.857876
v 0.857876 0.857876 1.000000
v 1.000000 -0.857876 0.857876
v 0.857876 -0.857876 1.000000
v 0.857876 -1.000000 0.857876
v -0.857876 0.857876 -1.000000
v -1.000000 0.857876 -0.857876
v -0.857876 1.000000 -0.857876
v -1.000000 -0.857876 -0.857876
v -0.857876 -0.857876 -1.000000
v -0.857876 -1.000000 -0.857876
v -1.000000 0.857876 0.857876
v -0.857876 0.857876 1.000000
v -0.857876 1.000000 0.857876
v -0.857876 -1.000000 0.857876
v -0.857876 -0.857876 1.000000
v -1.000000 -0.857876 0.857876
vt 0.357021 0.357021
vt 0.642979 0.357021
vt 0.642979 0.642979
vt 0.357021 0.642979
vt 0.642979 0.023687
vt 0.642979 0.309646
vt 0.357021 0.309646
vt 0.357021 0.023687
vt 0.309646 0.357021
vt 0.309646 0.642979
vt 0.023687 0.642979
vt 0.023687 0.357021
vt 0.023687 0.023687
vt 0.309646 0.023687
vt 0.309646 0.309646
vt 0.023687 0.309646
vt 0.309646 0.690354
vt 0.309646 0.976313
vt 0.023687 0.976312
vt 0.023687 0.690354
vt 0.023687 0.000000
vt 0.000000 0.023687
vt 0.000000 0.023687
vt 0.642979 0.333333
vt 0.666667 0.357021
vt 0.000000 0.309646
vt 0.000000 0.309646
vt 0.023687 0.333333
vt 0.333333 0.357021
vt 0.309646 0.333333
vt 0.309646 0.333333
vt 0.333333 0.309646
vt 0.333333 0.309646
vt 0.357021 0.333333
vt 0.333333 0.023687
vt 0.357021 0.000000
vt 0.000000 0.642979
vt 0.000000 0.642979
vt 0.023687 0.666667
vt 0.023687 0.333333
vt 0.023687 0.333333
vt 0.000000 0.357021
vt 0.642979 0.000000
vt 0.357021 0.333333
vt 0.333333 0.690354
vt 0.333333 0.976313
vt 0.333333 0.642979
vt 0.309646 0.333333
vt 0.333333 0.023687
vt 0.333333 0.309646
vt 0.309646 0.000000
vt 0.666667 0.642979
vt 0.976313 0.023687
vt 0.976313 0.309646
vt 0.690354 0.309646
vt 0.690354 0.023687
vn 0.0000 -1.0000 0.0000
vn -1.0000 0.0000 0.0000
vn 0.0000 0.0000 1.0000
vn 0.0000 1.0000 0.0000
vn 1.0000 0.0000 0.0000
vn 0.5774 0.5774 -0.5774
vn 0.5774 -0.5774 -0.5774
vn 0.5774 0.5774 0.5774
vn 0.5774 -0.5774 0.5774
vn -0.5774 0.5774 -0.5774
vn -0.5774 -0.5774 -0.5774
vn -0.5774 0.5774 0.5774
vn -0.5774 -0.5774 0.5774
vn -0.7071 -0.7071 0.0000
vn 0.0000 -0.7071 -0.7071
vn 0.7071 0.0000 -0.7071
vn -0.7071 0.0000 0.7071
vn 0.7071 0.0000 0.7071
vn -0.7071 0.0000 -0.7071
vn 0.0000 0.7071 0.7071
vn 0.7071 0.7071 0.0000
vn 0.0000 -0.7071 0.7071
vn -0.7071 0.7071 0.0000
vn 0.0000 0.7071 -0.7071
vn 0.7071 -0.7071 0.0000
vn 0.0000 0.0000 -1.0000
usemtl Material
s off
f 18/1/1 4/2/1 12/3/1 22/4/1
f 24/5/2 19/6/2 14/7/2 16/8/2
f 11/9/3 9/10/3 20/11/3 23/12/3
f 2/13/4 15/14/4 21/15/4 8/16/4
f 6/17/5 3/18/5 7/19/5 10/20/5
f 1/21/6 2/22/6 3/23/6
f 4/2/7 5/24/7 6/25/7
f 7/26/8 8/27/8 9/28/8
f 10/29/9 11/30/9 12/31/9
f 13/32/10 14/33/10 15/34/10
f 16/8/11 17/35/11 18/36/11
f 19/37/12 20/38/12 21/39/12
f 22/40/13 23/41/13 24/42/13
f 18/36/14 22/43/14 24/5/14 16/8/14
f 4/2/15 18/1/15 17/44/15 5/24/15
f 3/18/16 6/17/16 5/45/16 1/46/16
f 23/12/17 20/11/17 19/37/17 24/42/17
f 9/10/18 11/9/18 10/29/18 7/47/18
f 13/32/19 17/35/19 16/8/19 14/7/19
f 8/16/20 21/15/20 20/48/20 9/28/20
f 2/13/21 8/16/21 7/26/21 3/23/21
f 22/40/22 12/31/22 11/9/22 23/12/22
f 21/15/23 15/14/23 14/49/23 19/50/23
f 15/14/24 2/13/24 1/21/24 13/51/24
f 12/3/25 4/2/25 6/25/25 10/52/25
f 17/53/26 13/54/26 1/55/26 5/56/26
