# Blender v2.92.0 OBJ File: 'wheel_module.blend'
# www.blender.org
mtllib wheel_module.mtl
o Cylinder
v 0.000000 -0.500000 -2.000000
v 0.000000 0.500000 -2.000000
v 0.765367 -0.500000 -1.847759
v 0.765367 0.500000 -1.847759
v 1.414214 -0.500000 -1.414214
v 1.414214 0.500000 -1.414214
v 1.847759 -0.500000 -0.765367
v 1.847759 0.500000 -0.765367
v 2.000000 -0.500000 0.000000
v 2.000000 0.500000 0.000000
v 1.847759 -0.500000 0.765367
v 1.847759 0.500000 0.765367
v 1.414214 -0.500000 1.414214
v 1.414214 0.500000 1.414214
v 0.765367 -0.500000 1.847759
v 0.765367 0.500000 1.847759
v 0.000000 -0.500000 2.000000
v 0.000000 0.500000 2.000000
v -0.765366 -0.500000 1.847759
v -0.765366 0.500000 1.847759
v -1.414213 -0.500000 1.414214
v -1.414213 0.500000 1.414214
v -1.847759 -0.500000 0.765367
v -1.847759 0.500000 0.765367
v -2.000000 -0.500000 -0.000000
v -2.000000 0.500000 -0.000000
v -1.847759 -0.500000 -0.765367
v -1.847759 0.500000 -0.765367
v -1.414213 -0.500000 -1.414214
v -1.414213 0.500000 -1.414214
v -0.765366 -0.500000 -1.847759
v -0.765366 0.500000 -1.847759
v -0.000000 -1.097338 -1.016725
v 0.000000 -0.823896 -2.000000
v 0.765367 -0.823896 -1.847759
v 0.389084 -1.097338 -0.939331
v 0.389084 1.097338 -0.939331
v 0.765367 0.823896 -1.847759
v 0.000000 0.823896 -2.000000
v -0.000000 1.097338 -1.016725
v 1.414214 -0.823896 -1.414214
v 0.718933 -1.097338 -0.718933
v 0.718933 1.097338 -0.718933
v 1.414214 0.823896 -1.414214
v 1.847759 -0.823896 -0.765367
v 0.939331 -1.097338 -0.389084
v 0.939331 1.097338 -0.389084
v 1.847759 0.823896 -0.765367
v 2.000000 -0.823896 0.000000
v 1.016725 -1.097338 0.000000
v 1.016725 1.097338 0.000000
v 2.000000 0.823896 0.000000
v 1.847759 -0.823896 0.765367
v 0.939331 -1.097338 0.389084
v 0.939331 1.097338 0.389084
v 1.847759 0.823896 0.765367
v 1.414214 -0.823896 1.414214
v 0.718933 -1.097338 0.718933
v 0.718933 1.097338 0.718933
v 1.414214 0.823896 1.414214
v 0.765367 -0.823896 1.847759
v 0.389084 -1.097338 0.939331
v 0.389084 1.097338 0.939331
v 0.765367 0.823896 1.847759
v 0.000000 -0.823896 2.000000
v 0.000000 -1.097338 1.016725
v 0.000000 1.097338 1.016725
v 0.000000 0.823896 2.000000
v -0.765366 -0.823896 1.847759
v -0.389084 -1.097338 0.939331
v -0.389084 1.097338 0.939331
v -0.765366 0.823896 1.847759
v -1.414213 -0.823896 1.414214
v -0.718933 -1.097338 0.718933
v -0.718933 1.097338 0.718933
v -1.414213 0.823896 1.414214
v -1.847759 -0.823896 0.765367
v -0.939331 -1.097338 0.389084
v -0.939331 1.097338 0.389084
v -1.847759 0.823896 0.765367
v -2.000000 -0.823896 -0.000000
v -1.016725 -1.097338 0.000000
v -1.016725 1.097338 0.000000
v -2.000000 0.823896 -0.000000
v -1.847759 -0.823896 -0.765367
v -0.939331 -1.097338 -0.389084
v -0.939331 1.097338 -0.389084
v -1.847759 0.823896 -0.765367
v -1.414213 -0.823896 -1.414214
v -0.718933 -1.097338 -0.718933
v -0.718933 1.097338 -0.718933
v -1.414213 0.823896 -1.414214
v -0.765366 -0.823896 -1.847759
v -0.389083 -1.097338 -0.939332
v -0.389083 1.097338 -0.939332
v -0.765366 0.823896 -1.847759
v 0.658675 -1.097338 -1.590182
v -0.000000 -1.097338 -1.721201
v -0.000000 1.097338 -1.721201
v 0.658675 1.097338 -1.590182
v 1.217073 -1.097338 -1.217073
v 1.217073 1.097338 -1.217073
v 1.590182 -1.097338 -0.658675
v 1.590182 1.097338 -0.658675
v 1.721201 -1.097338 0.000000
v 1.721201 1.097338 0.000000
v 1.590182 -1.097338 0.658675
v 1.590182 1.097338 0.658675
v 1.217073 -1.097338 1.217073
v 1.217073 1.097338 1.217073
v 0.658675 -1.097338 1.590182
v 0.658675 1.097338 1.590182
v 0.000000 -1.097338 1.721201
v 0.000000 1.097338 1.721201
v -0.658675 -1.097338 1.590182
v -0.658675 1.097338 1.590182
v -1.217072 -1.097338 1.217073
v -1.217072 1.097338 1.217073
v -1.590182 -1.097338 0.658675
v -1.590182 1.097338 0.658675
v -1.721201 -1.097338 0.000000
v -1.721201 1.097338 0.000000
v -1.590182 -1.097338 -0.658675
v -1.590182 1.097338 -0.658675
v -1.217072 -1.097338 -1.217073
v -1.217072 1.097338 -1.217073
v -0.658674 -1.097338 -1.590183
v -0.658674 1.097338 -1.590183
v 0.195643 -0.756765 -0.472324
v -0.000000 -0.756765 -0.511240
v -0.000000 0.756765 -0.511240
v 0.195643 0.756765 -0.472324
v 0.361501 -0.756765 -0.361501
v 0.361501 0.756765 -0.361501
v 0.472324 -0.756765 -0.195643
v 0.472324 0.756765 -0.195643
v 0.511240 -0.756765 0.000000
v 0.511240 0.756765 0.000000
v 0.472324 -0.756765 0.195643
v 0.472324 0.756765 0.195643
v 0.361501 -0.756765 0.361501
v 0.361501 0.756765 0.361501
v 0.195643 -0.756765 0.472324
v 0.195643 0.756765 0.472324
v 0.000000 -0.756765 0.511240
v 0.000000 0.756765 0.511240
v -0.195643 -0.756765 0.472324
v -0.195643 0.756765 0.472324
v -0.361501 -0.756765 0.361501
v -0.361501 0.756765 0.361501
v -0.472324 -0.756765 0.195643
v -0.472324 0.756765 0.195643
v -0.511240 -0.756765 0.000000
v -0.511240 0.756765 0.000000
v -0.472324 -0.756765 -0.195643
v -0.472324 0.756765 -0.195643
v -0.361501 -0.756765 -0.361501
v -0.361501 0.756765 -0.361501
v -0.195643 -0.756765 -0.472324
v -0.195643 0.756765 -0.472324
v 0.268327 -0.756765 -0.647798
v -0.000000 -0.756765 -0.701171
v -0.000000 0.756765 -0.701171
v 0.268327 0.756765 -0.647798
v 0.495803 -0.756765 -0.495803
v 0.495803 0.756765 -0.495803
v 0.647798 -0.756765 -0.268327
v 0.647798 0.756765 -0.268327
v 0.701171 -0.756765 0.000000
v 0.701171 0.756765 0.000000
v 0.647798 -0.756765 0.268327
v 0.647798 0.756765 0.268327
v 0.495803 -0.756765 0.495803
v 0.495803 0.756765 0.495803
v 0.268327 -0.756765 0.647798
v 0.268327 0.756765 0.647798
v 0.000000 -0.756765 0.701171
v 0.000000 0.756765 0.701171
v -0.268326 -0.756765 0.647798
v -0.268326 0.756765 0.647798
v -0.495803 -0.756765 0.495803
v -0.495803 0.756765 0.495803
v -0.647798 -0.756765 0.268327
v -0.647798 0.756765 0.268327
v -0.701171 -0.756765 0.000000
v -0.701171 0.756765 0.000000
v -0.647798 -0.756765 -0.268327
v -0.647798 0.756765 -0.268327
v -0.495803 -0.756765 -0.495803
v -0.495803 0.756765 -0.495803
v -0.268326 -0.756765 -0.647798
v -0.268326 0.756765 -0.647798
v 0.175779 -0.831769 -0.424367
v -0.000000 -0.831769 -0.459331
v -0.000000 0.831769 -0.459331
v 0.175779 0.831769 -0.424367
v 0.324796 -0.831769 -0.324796
v 0.324796 0.831769 -0.324796
v 0.424367 -0.831769 -0.175778
v 0.424367 0.831769 -0.175779
v 0.459331 -0.831769 0.000000
v 0.459331 0.831769 0.000000
v 0.424367 -0.831769 0.175779
v 0.424367 0.831769 0.175779
v 0.324796 -0.831769 0.324796
v 0.324796 0.831769 0.324796
v 0.175779 -0.831769 0.424367
v 0.175779 0.831769 0.424367
v 0.000000 -0.831769 0.459331
v 0.000000 0.831769 0.459331
v -0.175778 -0.831769 0.424367
v -0.175778 0.831769 0.424367
v -0.324796 -0.831769 0.324796
v -0.324796 0.831769 0.324796
v -0.424367 -0.831769 0.175779
v -0.424367 0.831769 0.175778
v -0.459331 -0.831769 0.000000
v -0.459331 0.831769 0.000000
v -0.424367 -0.831769 -0.175778
v -0.424367 0.831769 -0.175778
v -0.324796 -0.831769 -0.324796
v -0.324796 0.831769 -0.324796
v -0.175778 -0.831769 -0.424367
v -0.175778 0.831769 -0.424367
vt 0.812903 0.312903
vt 0.832187 0.284043
vt 0.832187 0.284043
vt 0.812903 0.312903
vt 0.215957 0.167813
vt 0.250000 0.161042
vt 0.250000 0.161042
vt 0.215957 0.167813
vt 0.784043 0.332186
vt 0.750000 0.338958
vt 0.750000 0.372007
vt 0.796690 0.362720
vt 0.250000 0.338958
vt 0.284043 0.332186
vt 0.296690 0.362720
vt 0.250000 0.372007
vt 0.836272 0.336272
vt 0.312903 0.312903
vt 0.336272 0.336272
vt 0.862720 0.296690
vt 0.332186 0.284043
vt 0.362720 0.296690
vt 0.838958 0.250000
vt 0.872007 0.250000
vt 0.338958 0.250000
vt 0.372007 0.250000
vt 0.832186 0.215957
vt 0.862720 0.203310
vt 0.332186 0.215957
vt 0.362720 0.203310
vt 0.812903 0.187097
vt 0.836272 0.163728
vt 0.312903 0.187097
vt 0.336272 0.163728
vt 0.784043 0.167813
vt 0.796690 0.137280
vt 0.284043 0.167813
vt 0.296690 0.137280
vt 0.750000 0.161042
vt 0.750000 0.127993
vt 0.250000 0.127993
vt 0.715957 0.167813
vt 0.703310 0.137280
vt 0.203310 0.137280
vt 0.687097 0.187097
vt 0.663728 0.163728
vt 0.187097 0.187097
vt 0.163728 0.163728
vt 0.667813 0.215957
vt 0.637280 0.203310
vt 0.167813 0.215957
vt 0.137280 0.203310
vt 0.661042 0.250000
vt 0.627993 0.250000
vt 0.161042 0.250000
vt 0.127993 0.250000
vt 0.667814 0.284043
vt 0.637280 0.296690
vt 0.167813 0.284043
vt 0.137280 0.296690
vt 0.687097 0.312903
vt 0.663728 0.336272
vt 0.187097 0.312903
vt 0.163728 0.336272
vt 0.715957 0.332187
vt 0.703310 0.362720
vt 0.215957 0.332186
vt 0.203310 0.362720
vt 0.750000 0.338958
vt 0.784043 0.332186
vt 0.838958 0.250000
vt 0.832186 0.215957
vt 0.812903 0.187097
vt 0.784043 0.167813
vt 0.750000 0.161042
vt 0.715957 0.167813
vt 0.687097 0.187097
vt 0.667813 0.215957
vt 0.661042 0.250000
vt 0.667814 0.284043
vt 0.687097 0.312903
vt 0.715957 0.332187
vt 0.284043 0.332186
vt 0.250000 0.338958
vt 0.215957 0.332186
vt 0.187097 0.312903
vt 0.167813 0.284043
vt 0.161042 0.250000
vt 0.167813 0.215957
vt 0.187097 0.187097
vt 0.284043 0.167813
vt 0.312903 0.187097
vt 0.332186 0.215957
vt 0.338958 0.250000
vt 0.332186 0.284043
vt 0.312903 0.312903
vt 1.000000 0.500000
vt 1.000000 1.000000
vt 0.937500 1.000000
vt 0.937500 0.500000
vt 0.875000 1.000000
vt 0.875000 0.500000
vt 0.812500 1.000000
vt 0.812500 0.500000
vt 0.750000 1.000000
vt 0.750000 0.500000
vt 0.687500 1.000000
vt 0.687500 0.500000
vt 0.625000 1.000000
vt 0.625000 0.500000
vt 0.562500 1.000000
vt 0.562500 0.500000
vt 0.500000 1.000000
vt 0.500000 0.500000
vt 0.437500 1.000000
vt 0.437500 0.500000
vt 0.375000 1.000000
vt 0.375000 0.500000
vt 0.312500 1.000000
vt 0.312500 0.500000
vt 0.250000 1.000000
vt 0.250000 0.500000
vt 0.187500 1.000000
vt 0.187500 0.500000
vt 0.125000 1.000000
vt 0.125000 0.500000
vt 0.750000 1.000000
vt 0.687500 1.000000
vt 0.062500 1.000000
vt 0.062500 0.500000
vt 0.000000 1.000000
vt 0.000000 0.500000
vt 0.375000 0.500000
vt 0.437500 0.500000
vt 0.937500 1.000000
vt 0.875000 1.000000
vt 0.000000 0.500000
vt 0.062500 0.500000
vt 0.187500 1.000000
vt 0.125000 1.000000
vt 0.137280 0.296690
vt 0.127993 0.250000
vt 0.625000 0.500000
vt 0.687500 0.500000
vt 0.125000 0.500000
vt 0.336272 0.163728
vt 0.362720 0.203310
vt 0.437500 1.000000
vt 0.375000 1.000000
vt 0.312500 0.500000
vt 0.625000 1.000000
vt 0.062500 1.000000
vt 0.562500 0.500000
vt 1.000000 1.000000
vt 0.312500 1.000000
vt 0.000000 1.000000
vt 0.250000 0.500000
vt 0.562500 1.000000
vt 0.875000 0.500000
vt 0.937500 0.500000
vt 0.500000 0.500000
vt 0.812500 0.500000
vt 0.812500 1.000000
vt 0.250000 1.000000
vt 0.750000 0.500000
vt 0.187500 0.500000
vt 0.500000 1.000000
vt 1.000000 0.500000
vt 0.941856 0.500000
vt 0.995644 0.500000
vt 0.995644 1.000000
vt 0.941856 1.000000
vt 0.879356 0.500000
vt 0.933144 0.500000
vt 0.933144 1.000000
vt 0.879356 1.000000
vt 0.816856 0.500000
vt 0.870644 0.500000
vt 0.870644 1.000000
vt 0.816856 1.000000
vt 0.754356 0.500000
vt 0.808144 0.500000
vt 0.808144 1.000000
vt 0.754356 1.000000
vt 0.691856 0.500000
vt 0.745644 0.500000
vt 0.745644 1.000000
vt 0.691856 1.000000
vt 0.629356 0.500000
vt 0.683144 0.500000
vt 0.683144 1.000000
vt 0.629356 1.000000
vt 0.566856 0.500000
vt 0.620644 0.500000
vt 0.620644 1.000000
vt 0.566856 1.000000
vt 0.504356 0.500000
vt 0.558144 0.500000
vt 0.558144 1.000000
vt 0.504356 1.000000
vt 0.441856 0.500000
vt 0.495644 0.500000
vt 0.495644 1.000000
vt 0.441856 1.000000
vt 0.379356 0.500000
vt 0.433144 0.500000
vt 0.433144 1.000000
vt 0.379356 1.000000
vt 0.316856 0.500000
vt 0.370644 0.500000
vt 0.370644 1.000000
vt 0.316856 1.000000
vt 0.254356 0.500000
vt 0.308144 0.500000
vt 0.308144 1.000000
vt 0.254356 1.000000
vt 0.191856 0.500000
vt 0.245644 0.500000
vt 0.245644 1.000000
vt 0.191856 1.000000
vt 0.129356 0.500000
vt 0.183144 0.500000
vt 0.183144 1.000000
vt 0.129356 1.000000
vt 0.066856 0.500000
vt 0.120644 0.500000
vt 0.120644 1.000000
vt 0.066856 1.000000
vt 0.004356 0.500000
vt 0.058144 0.500000
vt 0.058144 1.000000
vt 0.004356 1.000000
vt 0.796690 0.362720
vt 0.750000 0.372007
vt 0.750000 0.456544
vt 0.829041 0.440822
vt 0.250000 0.372007
vt 0.296690 0.362720
vt 0.329041 0.440822
vt 0.250000 0.456544
vt 0.836272 0.336272
vt 0.896049 0.396049
vt 0.336272 0.336272
vt 0.396049 0.396049
vt 0.862720 0.296690
vt 0.940822 0.329041
vt 0.362720 0.296690
vt 0.440822 0.329041
vt 0.872007 0.250000
vt 0.956544 0.250000
vt 0.372007 0.250000
vt 0.456544 0.250000
vt 0.862720 0.203310
vt 0.940822 0.170959
vt 0.440822 0.170959
vt 0.836272 0.163728
vt 0.896049 0.103951
vt 0.396049 0.103951
vt 0.796690 0.137280
vt 0.829041 0.059178
vt 0.296690 0.137280
vt 0.329041 0.059178
vt 0.750000 0.127993
vt 0.750000 0.043456
vt 0.250000 0.127993
vt 0.250000 0.043456
vt 0.703310 0.137280
vt 0.670959 0.059178
vt 0.203310 0.137280
vt 0.170959 0.059178
vt 0.663728 0.163728
vt 0.603951 0.103951
vt 0.163728 0.163728
vt 0.103951 0.103951
vt 0.637280 0.203310
vt 0.559178 0.170959
vt 0.137280 0.203310
vt 0.059178 0.170959
vt 0.627993 0.250000
vt 0.543456 0.250000
vt 0.043456 0.250000
vt 0.637280 0.296690
vt 0.559178 0.329041
vt 0.059178 0.329041
vt 0.663728 0.336272
vt 0.603951 0.396049
vt 0.163728 0.336272
vt 0.103951 0.396049
vt 0.703310 0.362720
vt 0.670959 0.440822
vt 0.203310 0.362720
vt 0.170959 0.440822
vn 0.6880 -0.5616 -0.4597
vn -0.1614 0.5616 0.8115
vn 0.0000 -1.0000 0.0000
vn 0.0000 1.0000 0.0000
vn -0.1614 0.5616 -0.8115
vn -0.4597 -0.5616 0.6880
vn 0.6880 0.5616 -0.4597
vn -0.4597 0.5616 0.6880
vn 0.8115 -0.5616 -0.1614
vn -0.6880 -0.5616 0.4597
vn 0.8115 0.5616 -0.1614
vn -0.6880 0.5616 0.4597
vn 0.8115 -0.5616 0.1614
vn -0.8115 -0.5616 0.1614
vn 0.8115 0.5616 0.1614
vn -0.8115 0.5616 0.1614
vn 0.6880 -0.5616 0.4597
vn -0.8115 -0.5616 -0.1614
vn 0.6880 0.5616 0.4597
vn -0.8115 0.5616 -0.1614
vn 0.4597 -0.5616 0.6880
vn -0.6880 -0.5616 -0.4597
vn 0.4597 0.5616 0.6880
vn 0.1614 -0.5616 -0.8115
vn -0.6880 0.5616 -0.4597
vn 0.1614 -0.5616 0.8115
vn 0.1614 0.5616 -0.8115
vn -0.4597 -0.5616 -0.6880
vn 0.1614 0.5616 0.8115
vn 0.4597 -0.5616 -0.6880
vn -0.4597 0.5616 -0.6880
vn -0.1614 -0.5616 0.8115
vn 0.4597 0.5616 -0.6880
vn -0.1614 -0.5616 -0.8115
vn 0.1951 0.0000 -0.9808
vn 0.5556 0.0000 -0.8315
vn 0.8315 0.0000 -0.5556
vn 0.9808 0.0000 -0.1951
vn 0.9808 0.0000 0.1951
vn 0.8315 0.0000 0.5556
vn 0.5556 0.0000 0.8315
vn 0.1951 0.0000 0.9808
vn -0.1951 0.0000 0.9808
vn -0.5556 0.0000 0.8315
vn -0.8315 0.0000 0.5556
vn -0.9808 0.0000 0.1951
vn -0.9808 0.0000 -0.1951
vn -0.8315 0.0000 -0.5556
vn -0.5556 0.0000 -0.8315
vn -0.1951 0.0000 -0.9808
vn 0.7259 0.6725 0.1444
vn -0.6153 0.6725 -0.4112
vn 0.1379 -0.7071 -0.6935
vn 0.1379 0.7071 -0.6935
vn 0.3928 -0.7071 -0.5879
vn 0.3928 0.7071 -0.5879
vn 0.5879 -0.7071 -0.3928
vn 0.5879 0.7071 -0.3928
vn 0.6935 -0.7071 -0.1379
vn 0.6935 0.7071 -0.1379
vn 0.6935 -0.7071 0.1379
vn 0.6935 0.7071 0.1379
vn 0.5879 -0.7071 0.3928
vn 0.5879 0.7071 0.3928
vn 0.3928 -0.7071 0.5879
vn 0.3928 0.7071 0.5879
vn 0.1379 -0.7071 0.6935
vn 0.1379 0.7071 0.6935
vn -0.1379 -0.7071 0.6935
vn -0.1379 0.7071 0.6935
vn -0.3928 -0.7071 0.5879
vn -0.3928 0.7071 0.5879
vn -0.5879 -0.7071 0.3928
vn -0.5879 0.7071 0.3928
vn -0.6935 -0.7071 0.1379
vn -0.6935 0.7071 0.1379
vn -0.6935 -0.7071 -0.1379
vn -0.6935 0.7071 -0.1379
vn -0.5879 -0.7071 -0.3928
vn -0.5879 0.7071 -0.3928
vn -0.3928 -0.7071 -0.5879
vn -0.3928 0.7071 -0.5879
vn -0.1379 -0.7071 -0.6935
vn -0.1379 0.7071 -0.6935
vn -0.4112 -0.6725 -0.6153
vn 0.6153 -0.6725 0.4112
vn -0.4112 0.6725 -0.6153
vn -0.1444 -0.6725 0.7259
vn 0.6153 0.6725 0.4112
vn -0.1444 -0.6725 -0.7259
vn -0.1444 0.6725 0.7259
vn 0.4112 -0.6725 0.6153
vn -0.1444 0.6725 -0.7259
vn -0.4112 -0.6725 0.6153
vn 0.4112 0.6725 0.6153
vn 0.1444 -0.6725 -0.7259
vn -0.4112 0.6725 0.6153
vn 0.1444 -0.6725 0.7259
vn 0.1444 0.6725 -0.7259
vn -0.6153 -0.6725 0.4112
vn 0.1444 0.6725 0.7259
vn 0.4112 -0.6725 -0.6153
vn -0.6153 0.6725 0.4112
vn 0.4112 0.6725 -0.6153
vn -0.7259 -0.6725 0.1444
vn 0.6153 -0.6725 -0.4112
vn -0.7259 0.6725 0.1444
vn 0.6153 0.6725 -0.4112
vn -0.7259 -0.6725 -0.1444
vn 0.7259 -0.6725 -0.1444
vn -0.7259 0.6725 -0.1444
vn 0.7259 0.6725 -0.1444
vn -0.6153 -0.6725 -0.4112
vn 0.7259 -0.6725 0.1444
usemtl Material
s off
f 133/1/1 135/2/1 199/3/1 197/4/1
f 148/5/2 146/6/2 210/7/2 212/8/2
f 129/9/3 130/10/3 162/11/3 161/12/3
f 131/13/4 132/14/4 164/15/4 163/16/4
f 133/1/3 129/9/3 161/12/3 165/17/3
f 132/14/4 134/18/4 166/19/4 164/15/4
f 135/2/3 133/1/3 165/17/3 167/20/3
f 134/18/4 136/21/4 168/22/4 166/19/4
f 137/23/3 135/2/3 167/20/3 169/24/3
f 136/21/4 138/25/4 170/26/4 168/22/4
f 139/27/3 137/23/3 169/24/3 171/28/3
f 138/25/4 140/29/4 172/30/4 170/26/4
f 141/31/3 139/27/3 171/28/3 173/32/3
f 140/29/4 142/33/4 174/34/4 172/30/4
f 143/35/3 141/31/3 173/32/3 175/36/3
f 142/33/4 144/37/4 176/38/4 174/34/4
f 145/39/3 143/35/3 175/36/3 177/40/3
f 144/37/4 146/6/4 178/41/4 176/38/4
f 147/42/3 145/39/3 177/40/3 179/43/3
f 146/6/4 148/5/4 180/44/4 178/41/4
f 149/45/3 147/42/3 179/43/3 181/46/3
f 148/5/4 150/47/4 182/48/4 180/44/4
f 151/49/3 149/45/3 181/46/3 183/50/3
f 150/47/4 152/51/4 184/52/4 182/48/4
f 153/53/3 151/49/3 183/50/3 185/54/3
f 152/51/4 154/55/4 186/56/4 184/52/4
f 155/57/3 153/53/3 185/54/3 187/58/3
f 154/55/4 156/59/4 188/60/4 186/56/4
f 157/61/3 155/57/3 187/58/3 189/62/3
f 156/59/4 158/63/4 190/64/4 188/60/4
f 159/65/3 157/61/3 189/62/3 191/66/3
f 158/63/4 160/67/4 192/68/4 190/64/4
f 130/10/3 159/65/3 191/66/3 162/11/3
f 160/67/4 131/13/4 163/16/4 192/68/4
f 194/69/3 193/70/3 197/4/3 199/3/3 201/71/3 203/72/3 205/73/3 207/74/3 209/75/3 211/76/3 213/77/3 215/78/3 217/79/3 219/80/3 221/81/3 223/82/3
f 196/83/4 195/84/4 224/85/4 222/86/4 220/87/4 218/88/4 216/89/4 214/90/4 212/8/4 210/7/4 208/91/4 206/92/4 204/93/4 202/94/4 200/95/4 198/96/4
f 131/13/5 160/67/5 224/85/5 195/84/5
f 147/42/6 149/45/6 213/77/6 211/76/6
f 136/21/7 134/18/7 198/96/7 200/95/7
f 150/47/8 148/5/8 212/8/8 214/90/8
f 135/2/9 137/23/9 201/71/9 199/3/9
f 149/45/10 151/49/10 215/78/10 213/77/10
f 138/25/11 136/21/11 200/95/11 202/94/11
f 152/51/12 150/47/12 214/90/12 216/89/12
f 137/23/13 139/27/13 203/72/13 201/71/13
f 151/49/14 153/53/14 217/79/14 215/78/14
f 140/29/15 138/25/15 202/94/15 204/93/15
f 154/55/16 152/51/16 216/89/16 218/88/16
f 139/27/17 141/31/17 205/73/17 203/72/17
f 153/53/18 155/57/18 219/80/18 217/79/18
f 142/33/19 140/29/19 204/93/19 206/92/19
f 156/59/20 154/55/20 218/88/20 220/87/20
f 141/31/21 143/35/21 207/74/21 205/73/21
f 155/57/22 157/61/22 221/81/22 219/80/22
f 144/37/23 142/33/23 206/92/23 208/91/23
f 130/10/24 129/9/24 193/70/24 194/69/24
f 158/63/25 156/59/25 220/87/25 222/86/25
f 143/35/26 145/39/26 209/75/26 207/74/26
f 132/14/27 131/13/27 195/84/27 196/83/27
f 157/61/28 159/65/28 223/82/28 221/81/28
f 146/6/29 144/37/29 208/91/29 210/7/29
f 129/9/30 133/1/30 197/4/30 193/70/30
f 160/67/31 158/63/31 222/86/31 224/85/31
f 145/39/32 147/42/32 211/76/32 209/75/32
f 134/18/33 132/14/33 196/83/33 198/96/33
f 159/65/34 130/10/34 194/69/34 223/82/34
usemtl Material.001
f 1/97/35 2/98/35 4/99/35 3/100/35
f 3/100/36 4/99/36 6/101/36 5/102/36
f 5/102/37 6/101/37 8/103/37 7/104/37
f 7/104/38 8/103/38 10/105/38 9/106/38
f 9/106/39 10/105/39 12/107/39 11/108/39
f 11/108/40 12/107/40 14/109/40 13/110/40
f 13/110/41 14/109/41 16/111/41 15/112/41
f 15/112/42 16/111/42 18/113/42 17/114/42
f 17/114/43 18/113/43 20/115/43 19/116/43
f 19/116/44 20/115/44 22/117/44 21/118/44
f 21/118/45 22/117/45 24/119/45 23/120/45
f 23/120/46 24/119/46 26/121/46 25/122/46
f 25/122/47 26/121/47 28/123/47 27/124/47
f 27/124/48 28/123/48 30/125/48 29/126/48
f 12/107/39 10/105/39 52/127/39 56/128/39
f 29/126/49 30/125/49 32/129/49 31/130/49
f 31/130/50 32/129/50 2/131/50 1/132/50
f 19/116/44 21/118/44 73/133/44 69/134/44
f 6/101/36 4/99/36 38/135/36 44/136/36
f 31/130/50 1/132/50 34/137/50 93/138/50
f 30/125/48 28/123/48 88/139/48 92/140/48
f 87/141/51 83/142/51 186/56/51 188/60/51
f 11/108/40 13/110/40 57/143/40 53/144/40
f 29/126/49 31/130/49 93/138/49 89/145/49
f 59/146/52 55/147/52 172/30/52 174/34/52
f 22/117/44 20/115/44 72/148/44 76/149/44
f 21/118/45 23/120/45 77/150/45 73/133/45
f 14/109/40 12/107/40 56/128/40 60/151/40
f 32/129/49 30/125/49 92/140/49 96/152/49
f 13/110/41 15/112/41 61/153/41 57/143/41
f 4/99/35 2/98/35 39/154/35 38/135/35
f 24/119/45 22/117/45 76/149/45 80/155/45
f 2/131/50 32/129/50 96/152/50 39/156/50
f 23/120/46 25/122/46 81/157/46 77/150/46
f 16/111/41 14/109/41 60/151/41 64/158/41
f 3/100/36 5/102/36 41/159/36 35/160/36
f 15/112/42 17/114/42 65/161/42 61/153/42
f 5/102/37 7/104/37 45/162/37 41/159/37
f 8/103/37 6/101/37 44/136/37 48/163/37
f 26/121/46 24/119/46 80/155/46 84/164/46
f 7/104/38 9/106/38 49/165/38 45/162/38
f 25/122/47 27/124/47 85/166/47 81/157/47
f 18/113/42 16/111/42 64/158/42 68/167/42
f 17/114/43 19/116/43 69/134/43 65/161/43
f 10/105/38 8/103/38 48/163/38 52/127/38
f 28/123/47 26/121/47 84/164/47 88/139/47
f 9/106/39 11/108/39 53/144/39 49/165/39
f 27/124/48 29/126/48 89/145/48 85/166/48
f 20/115/43 18/113/43 68/167/43 72/148/43
f 34/168/53 35/160/53 97/169/53 98/170/53
f 38/135/54 39/154/54 99/171/54 100/172/54
f 35/160/55 41/159/55 101/173/55 97/174/55
f 44/136/56 38/135/56 100/175/56 102/176/56
f 41/159/57 45/162/57 103/177/57 101/178/57
f 48/163/58 44/136/58 102/179/58 104/180/58
f 45/162/59 49/165/59 105/181/59 103/182/59
f 52/127/60 48/163/60 104/183/60 106/184/60
f 49/165/61 53/144/61 107/185/61 105/186/61
f 56/128/62 52/127/62 106/187/62 108/188/62
f 53/144/63 57/143/63 109/189/63 107/190/63
f 60/151/64 56/128/64 108/191/64 110/192/64
f 57/143/65 61/153/65 111/193/65 109/194/65
f 64/158/66 60/151/66 110/195/66 112/196/66
f 61/153/67 65/161/67 113/197/67 111/198/67
f 68/167/68 64/158/68 112/199/68 114/200/68
f 65/161/69 69/134/69 115/201/69 113/202/69
f 72/148/70 68/167/70 114/203/70 116/204/70
f 69/134/71 73/133/71 117/205/71 115/206/71
f 76/149/72 72/148/72 116/207/72 118/208/72
f 73/133/73 77/150/73 119/209/73 117/210/73
f 80/155/74 76/149/74 118/211/74 120/212/74
f 77/150/75 81/157/75 121/213/75 119/214/75
f 84/164/76 80/155/76 120/215/76 122/216/76
f 81/157/77 85/166/77 123/217/77 121/218/77
f 88/139/78 84/164/78 122/219/78 124/220/78
f 85/166/79 89/145/79 125/221/79 123/222/79
f 92/140/80 88/139/80 124/223/80 126/224/80
f 89/145/81 93/138/81 127/225/81 125/226/81
f 96/152/82 92/140/82 126/227/82 128/228/82
f 93/138/83 34/137/83 98/229/83 127/230/83
f 39/156/84 96/152/84 128/231/84 99/232/84
f 1/97/35 3/100/35 35/160/35 34/168/35
f 36/233/3 33/234/3 98/235/3 97/236/3
f 40/237/4 37/238/4 100/239/4 99/240/4
f 42/241/3 36/233/3 97/236/3 101/242/3
f 37/238/4 43/243/4 102/244/4 100/239/4
f 46/245/3 42/241/3 101/242/3 103/246/3
f 43/243/4 47/247/4 104/248/4 102/244/4
f 50/249/3 46/245/3 103/246/3 105/250/3
f 47/247/4 51/251/4 106/252/4 104/248/4
f 54/253/3 50/249/3 105/250/3 107/254/3
f 51/251/4 55/147/4 108/255/4 106/252/4
f 58/256/3 54/253/3 107/254/3 109/257/3
f 55/147/4 59/146/4 110/258/4 108/255/4
f 62/259/3 58/256/3 109/257/3 111/260/3
f 59/146/4 63/261/4 112/262/4 110/258/4
f 66/263/3 62/259/3 111/260/3 113/264/3
f 63/261/4 67/265/4 114/266/4 112/262/4
f 70/267/3 66/263/3 113/264/3 115/268/3
f 67/265/4 71/269/4 116/270/4 114/266/4
f 74/271/3 70/267/3 115/268/3 117/272/3
f 71/269/4 75/273/4 118/274/4 116/270/4
f 78/275/3 74/271/3 117/272/3 119/276/3
f 75/273/4 79/277/4 120/278/4 118/274/4
f 82/279/3 78/275/3 119/276/3 121/280/3
f 79/277/4 83/142/4 122/281/4 120/278/4
f 86/282/3 82/279/3 121/280/3 123/283/3
f 83/142/4 87/141/4 124/284/4 122/281/4
f 90/285/3 86/282/3 123/283/3 125/286/3
f 87/141/4 91/287/4 126/288/4 124/284/4
f 94/289/3 90/285/3 125/286/3 127/290/3
f 91/287/4 95/291/4 128/292/4 126/288/4
f 33/234/3 94/289/3 127/290/3 98/235/3
f 95/291/4 40/237/4 99/240/4 128/292/4
f 58/256/85 62/259/85 175/36/85 173/32/85
f 86/282/86 90/285/86 189/62/86 187/58/86
f 63/261/87 59/146/87 174/34/87 176/38/87
f 33/234/88 36/233/88 161/12/88 162/11/88
f 91/287/89 87/141/89 188/60/89 190/64/89
f 62/259/90 66/263/90 177/40/90 175/36/90
f 37/238/91 40/237/91 163/16/91 164/15/91
f 90/285/92 94/289/92 191/66/92 189/62/92
f 67/265/93 63/261/93 176/38/93 178/41/93
f 36/233/94 42/241/94 165/17/94 161/12/94
f 95/291/95 91/287/95 190/64/95 192/68/95
f 66/263/96 70/267/96 179/43/96 177/40/96
f 43/243/97 37/238/97 164/15/97 166/19/97
f 94/289/98 33/234/98 162/11/98 191/66/98
f 71/269/99 67/265/99 178/41/99 180/44/99
f 42/241/100 46/245/100 167/20/100 165/17/100
f 40/237/101 95/291/101 192/68/101 163/16/101
f 70/267/102 74/271/102 181/46/102 179/43/102
f 47/247/103 43/243/103 166/19/103 168/22/103
f 75/273/104 71/269/104 180/44/104 182/48/104
f 46/245/105 50/249/105 169/24/105 167/20/105
f 74/271/106 78/275/106 183/50/106 181/46/106
f 51/251/107 47/247/107 168/22/107 170/26/107
f 79/277/108 75/273/108 182/48/108 184/52/108
f 50/249/109 54/253/109 171/28/109 169/24/109
f 78/275/110 82/279/110 185/54/110 183/50/110
f 55/147/111 51/251/111 170/26/111 172/30/111
f 83/142/112 79/277/112 184/52/112 186/56/112
f 54/253/113 58/256/113 173/32/113 171/28/113
f 82/279/114 86/282/114 187/58/114 185/54/114
